<svg width="20" height="20" viewBox="0 0 20 20" fill="none" xmlns="http://www.w3.org/2000/svg">
<g id="Frame">
<g id="vuesax/outline/arrow-down">
<g id="arrow-down">
<path id="Vector" d="M10.0007 14.0025C9.70198 14.0025 9.40615 13.9437 9.13016 13.8293C8.85418 13.7149 8.60348 13.5472 8.3924 13.3358L2.95907 7.89995C2.85093 7.78108 2.79273 7.62512 2.79656 7.46447C2.8004 7.30381 2.86597 7.15081 2.97965 7.03723C3.09334 6.92365 3.24641 6.85822 3.40707 6.85454C3.56772 6.85086 3.72363 6.9092 3.8424 7.01745L9.2774 12.45C9.46975 12.6421 9.73051 12.75 10.0024 12.75C10.2743 12.75 10.535 12.6421 10.7274 12.45L16.1607 7.01662C16.2792 6.90622 16.4359 6.84612 16.5978 6.84897C16.7598 6.85183 16.9142 6.91742 17.0287 7.03194C17.1433 7.14645 17.2089 7.30093 17.2117 7.46285C17.2146 7.62477 17.1545 7.78147 17.0441 7.89995L11.6107 13.3358C11.3995 13.5474 11.1485 13.7152 10.8722 13.8296C10.5959 13.944 10.2998 14.0028 10.0007 14.0025V14.0025Z" fill="#292D32"/>
</g>
</g>
</g>
</svg>
