<svg width="34" height="34" viewBox="0 0 34 34" fill="none" xmlns="http://www.w3.org/2000/svg">
<path d="M21.7438 13.2584L13.2585 21.7437C13.1172 21.8831 12.9267 21.9613 12.7281 21.9613C12.5296 21.9613 12.3391 21.8831 12.1978 21.7437C12.0584 21.6024 11.9802 21.4119 11.9802 21.2134C11.9802 21.0149 12.0584 20.8243 12.1978 20.683L20.6831 12.1978C20.8244 12.0583 21.0149 11.9801 21.2134 11.9801C21.4119 11.9801 21.6025 12.0583 21.7438 12.1978C21.8832 12.3391 21.9614 12.5296 21.9614 12.7281C21.9614 12.9266 21.8832 13.1171 21.7438 13.2584Z" fill="#292D32"/>
<path d="M21.7438 21.7436C21.6025 21.8831 21.4119 21.9613 21.2134 21.9613C21.0149 21.9613 20.8244 21.8831 20.6831 21.7436L12.1978 13.2584C12.0584 13.1171 11.9802 12.9265 11.9802 12.728C11.9802 12.5295 12.0584 12.339 12.1978 12.1977C12.3391 12.0583 12.5296 11.9801 12.7281 11.9801C12.9267 11.9801 13.1172 12.0583 13.2585 12.1977L21.7438 20.683C21.8832 20.8243 21.9614 21.0148 21.9614 21.2133C21.9614 21.4118 21.8832 21.6023 21.7438 21.7436Z" fill="#292D32"/>
</svg>
