<svg width="18" height="18" viewBox="0 0 18 18" fill="none" xmlns="http://www.w3.org/2000/svg">
<path d="M6.00033 16.7399C5.78305 16.7393 5.56925 16.6852 5.37783 16.5824C5.16883 16.4706 4.99418 16.3041 4.87263 16.1006C4.75107 15.8971 4.68719 15.6644 4.68783 15.4274V14.3624C3.62452 14.2869 2.63401 13.7946 1.93175 12.9927C1.22949 12.1907 0.87229 11.1439 0.937834 10.0799V5.57989C0.90437 5.00482 0.992995 4.42917 1.19788 3.89079C1.40277 3.35241 1.71928 2.86349 2.1266 2.45616C2.53393 2.04883 3.02285 1.73233 3.56123 1.52744C4.09961 1.32255 4.67526 1.23393 5.25033 1.26739H12.7503C13.3254 1.23393 13.9011 1.32255 14.4394 1.52744C14.9778 1.73233 15.4667 2.04883 15.8741 2.45616C16.2814 2.86349 16.5979 3.35241 16.8028 3.89079C17.0077 4.42917 17.0963 5.00482 17.0628 5.57989V10.0799C17.0963 10.655 17.0077 11.2306 16.8028 11.769C16.5979 12.3074 16.2814 12.7963 15.8741 13.2036C15.4667 13.611 14.9778 13.9275 14.4394 14.1323C13.9011 14.3372 13.3254 14.4259 12.7503 14.3924H9.92283L6.72783 16.5224C6.51155 16.6639 6.25879 16.7395 6.00033 16.7399V16.7399ZM5.25033 2.38489C4.82413 2.35534 4.39655 2.41754 3.99642 2.56727C3.5963 2.71701 3.23294 2.95081 2.93084 3.2529C2.62875 3.555 2.39495 3.91836 2.24521 4.31848C2.09548 4.71861 2.03329 5.14619 2.06283 5.57239V10.0724C2.03329 10.4986 2.09548 10.9262 2.24521 11.3263C2.39495 11.7264 2.62875 12.0898 2.93084 12.3919C3.23294 12.694 3.5963 12.9278 3.99642 13.0775C4.39655 13.2272 4.82413 13.2894 5.25033 13.2599C5.39921 13.2609 5.54172 13.3205 5.647 13.4257C5.75227 13.531 5.81185 13.6735 5.81283 13.8224V15.4199C5.81295 15.4539 5.82224 15.4873 5.83974 15.5164C5.85723 15.5456 5.88228 15.5695 5.91223 15.5857C5.94218 15.6018 5.97593 15.6095 6.00992 15.6081C6.04391 15.6066 6.07687 15.596 6.10533 15.5774L9.44283 13.3574C9.53615 13.295 9.6456 13.2611 9.75783 13.2599H12.7578C13.184 13.2894 13.6116 13.2272 14.0117 13.0775C14.4119 12.9278 14.7752 12.694 15.0773 12.3919C15.3794 12.0898 15.6132 11.7264 15.763 11.3263C15.9127 10.9262 15.9749 10.4986 15.9453 10.0724V5.57239C15.9749 5.14619 15.9127 4.71861 15.763 4.31848C15.6132 3.91836 15.3794 3.555 15.0773 3.2529C14.7752 2.95081 14.4119 2.71701 14.0117 2.56727C13.6116 2.41754 13.184 2.35534 12.7578 2.38489H5.25033Z" fill="#8A8A90"/>
<path d="M9.00037 9.08252C8.85149 9.08154 8.70899 9.02196 8.60371 8.91668C8.49843 8.8114 8.43885 8.6689 8.43787 8.52002V8.36252C8.4468 8.06404 8.53216 7.77284 8.6858 7.51678C8.83944 7.26072 9.05621 7.04836 9.31537 6.90002C9.59287 6.71252 9.68287 6.58502 9.68287 6.39002C9.68287 6.30039 9.66522 6.21164 9.63092 6.12884C9.59662 6.04603 9.54635 5.9708 9.48297 5.90742C9.4196 5.84404 9.34436 5.79377 9.26155 5.75947C9.17875 5.72517 9.09 5.70752 9.00037 5.70752C8.91074 5.70752 8.82199 5.72517 8.73919 5.75947C8.65638 5.79377 8.58115 5.84404 8.51777 5.90742C8.45439 5.9708 8.40412 6.04603 8.36982 6.12884C8.33552 6.21164 8.31787 6.30039 8.31787 6.39002C8.31689 6.5389 8.25731 6.6814 8.15203 6.78668C8.04676 6.89196 7.90425 6.95154 7.75537 6.95252C7.60649 6.95154 7.46399 6.89196 7.35871 6.78668C7.25343 6.6814 7.19385 6.5389 7.19287 6.39002C7.19287 5.91064 7.3833 5.4509 7.72228 5.11192C8.06125 4.77295 8.52099 4.58252 9.00037 4.58252C9.47975 4.58252 9.93949 4.77295 10.2785 5.11192C10.6174 5.4509 10.8079 5.91064 10.8079 6.39002C10.799 6.68372 10.7151 6.97026 10.5641 7.22234C10.4132 7.47441 10.2001 7.68362 9.94537 7.83002C9.65287 8.02502 9.56287 8.15252 9.56287 8.36252V8.52002C9.56297 8.59392 9.54849 8.66711 9.52025 8.7354C9.49202 8.80369 9.45059 8.86574 9.39834 8.91799C9.34609 8.97024 9.28404 9.01167 9.21575 9.0399C9.14746 9.06814 9.07427 9.08262 9.00037 9.08252Z" fill="#8A8A90"/>
<path d="M9 10.95C8.88875 10.95 8.77999 10.917 8.68749 10.8552C8.59499 10.7933 8.52289 10.7055 8.48032 10.6027C8.43774 10.4999 8.4266 10.3868 8.44831 10.2777C8.47001 10.1686 8.52359 10.0684 8.60225 9.9897C8.68092 9.91104 8.78115 9.85746 8.89026 9.83576C8.99938 9.81406 9.11248 9.82519 9.21526 9.86777C9.31804 9.91034 9.40589 9.98244 9.4677 10.0749C9.52951 10.1674 9.5625 10.2762 9.5625 10.3875C9.5626 10.4613 9.54812 10.5345 9.51988 10.6028C9.49165 10.6711 9.45022 10.7332 9.39797 10.7854C9.34571 10.8377 9.28367 10.8791 9.21538 10.9073C9.14709 10.9356 9.0739 10.95 9 10.95V10.95Z" fill="#8A8A90"/>
</svg>
