<svg xmlns="http://www.w3.org/2000/svg" width="20" height="20" fill="none" viewBox="0 0 20 20"><path stroke="#151522" stroke-width="1.5" d="M12.5999 8.5917C12.5999 9.10593 12.4474 9.60861 12.1617 10.0362C11.876 10.4637 11.47 10.797 10.9949 10.9938C10.5198 11.1906 9.99702 11.2421 9.49267 11.1417C8.98832 11.0414 8.52504 10.7938 8.16143 10.4302C7.79781 10.0666 7.55018 9.60328 7.44986 9.09893C7.34954 8.59458 7.40103 8.07181 7.59782 7.59672C7.7946 7.12163 8.12785 6.71557 8.55542 6.42988C8.98299 6.14419 9.48567 5.9917 9.9999 5.9917C10.6895 5.9917 11.3508 6.26563 11.8384 6.75322C12.326 7.24082 12.5999 7.90214 12.5999 8.5917V8.5917Z"/><path stroke="#151522" stroke-width="1.5" d="M3.01675 7.07508C4.65842 -0.141583 15.3501 -0.13325 16.9834 7.08342C17.9417 11.3168 15.3084 14.9001 13.0001 17.1168C12.1935 17.8947 11.1165 18.3294 9.99592 18.3294C8.87529 18.3294 7.79835 17.8947 6.99175 17.1168C4.69175 14.9001 2.05842 11.3084 3.01675 7.07508Z"/></svg>
