<svg width="20" height="20" viewBox="0 0 20 20" fill="none" xmlns="http://www.w3.org/2000/svg">
<g opacity="0.5">
<path d="M12.5999 8.5917C12.5999 9.10593 12.4474 9.60861 12.1617 10.0362C11.876 10.4637 11.47 10.797 10.9949 10.9938C10.5198 11.1906 9.99702 11.2421 9.49267 11.1417C8.98832 11.0414 8.52504 10.7938 8.16143 10.4302C7.79781 10.0666 7.55018 9.60328 7.44986 9.09893C7.34954 8.59458 7.40103 8.07181 7.59782 7.59672C7.7946 7.12163 8.12785 6.71557 8.55542 6.42988C8.98299 6.14419 9.48567 5.9917 9.9999 5.9917C10.6895 5.9917 11.3508 6.26563 11.8384 6.75322C12.326 7.24082 12.5999 7.90214 12.5999 8.5917V8.5917Z" stroke="#151522" stroke-width="1.5"/>
<path d="M3.01669 7.07484C4.65836 -0.141828 15.35 -0.133494 16.9834 7.08317C17.9417 11.3165 15.3084 14.8998 13 17.1165C12.1934 17.8945 11.1165 18.3292 9.99585 18.3292C8.87523 18.3292 7.79829 17.8945 6.99169 17.1165C4.69169 14.8998 2.05836 11.3082 3.01669 7.07484Z" stroke="#151522" stroke-width="1.5"/>
</g>
</svg>
