<svg width="18" height="18" viewBox="0 0 18 18" fill="none" xmlns="http://www.w3.org/2000/svg">
<path d="M11.43 16.7026H11.3325C8.00247 16.7026 6.39747 15.3901 6.11997 12.4501C6.11285 12.3762 6.12041 12.3016 6.14222 12.2306C6.16403 12.1597 6.19966 12.0937 6.24706 12.0365C6.29446 11.9794 6.35269 11.9322 6.41841 11.8976C6.48412 11.863 6.55602 11.8418 6.62997 11.8351C6.77866 11.8235 6.92603 11.8703 7.04083 11.9655C7.15563 12.0607 7.22885 12.1968 7.24497 12.3451C7.46247 14.7001 8.57247 15.5776 11.34 15.5776H11.436C14.4885 15.5776 15.5685 14.4976 15.5685 11.4451V6.55511C15.5685 3.50261 14.4885 2.42261 11.436 2.42261H11.3385C8.55597 2.42261 7.44597 3.31511 7.24347 5.71511C7.22728 5.8627 7.154 5.99809 7.03928 6.09235C6.92457 6.18662 6.77753 6.23226 6.6296 6.21952C6.48167 6.20679 6.3446 6.13668 6.24768 6.0242C6.15077 5.91172 6.1017 5.76579 6.11097 5.61761C6.36747 2.63261 7.97997 1.29761 11.3325 1.29761H11.43C15.111 1.29761 16.686 2.87261 16.686 6.55511V11.4451C16.686 15.1276 15.111 16.7026 11.43 16.7026Z" fill="#96969B"/>
<path d="M11.2498 9.5625H2.71484C2.56596 9.56152 2.42346 9.50194 2.31818 9.39666C2.21291 9.29138 2.15333 9.14888 2.15234 9C2.15333 8.85112 2.21291 8.70862 2.31818 8.60334C2.42346 8.49806 2.56596 8.43848 2.71484 8.4375H11.2498C11.3987 8.43848 11.5412 8.49806 11.6465 8.60334C11.7518 8.70862 11.8114 8.85112 11.8123 9C11.8114 9.14888 11.7518 9.29138 11.6465 9.39666C11.5412 9.50194 11.3987 9.56152 11.2498 9.5625Z" fill="#96969B"/>
<path d="M4.38972 12.0764C4.31582 12.0767 4.24262 12.0622 4.17437 12.0339C4.10612 12.0056 4.0442 11.9639 3.99222 11.9114L1.47822 9.39743C1.37361 9.29158 1.31494 9.14876 1.31494 8.99993C1.31494 8.85111 1.37361 8.70829 1.47822 8.60243L3.99072 6.08993C4.09735 5.99057 4.23838 5.93648 4.38411 5.93905C4.52984 5.94162 4.66887 6.00066 4.77193 6.10372C4.87499 6.20678 4.93403 6.34582 4.9366 6.49154C4.93917 6.63727 4.88508 6.7783 4.78572 6.88493L2.66997 9.00143L4.78497 11.1164C4.88958 11.2223 4.94824 11.3651 4.94824 11.5139C4.94824 11.6628 4.88958 11.8056 4.78497 11.9114C4.73369 11.9643 4.67221 12.0061 4.60427 12.0345C4.53633 12.0629 4.46334 12.0771 4.38972 12.0764Z" fill="#96969B"/>
</svg>
