<svg xmlns="http://www.w3.org/2000/svg" width="15" height="15" fill="none" viewBox="0 0 15 15"><path stroke="#93009C" stroke-linecap="round" stroke-linejoin="round" stroke-width="1.5" d="M7.5 13.75C8.73613 13.75 9.94451 13.3834 10.9723 12.6967C12.0001 12.0099 12.8012 11.0338 13.2742 9.89177C13.7473 8.74974 13.8711 7.49307 13.6299 6.28069C13.3887 5.06831 12.7935 3.95466 11.9194 3.08059C11.0453 2.20651 9.93169 1.61125 8.71931 1.37009C7.50693 1.12894 6.25027 1.25271 5.10823 1.72576C3.96619 2.1988 2.99007 2.99988 2.30331 4.02769C1.61656 5.0555 1.25 6.26387 1.25 7.5C1.25478 9.15613 1.9148 10.7431 3.08587 11.9141C4.25693 13.0852 5.84387 13.7452 7.5 13.75V13.75Z"/><path stroke="#93009C" stroke-linecap="round" stroke-linejoin="round" stroke-width="1.5" d="M4.84375 7.5002L6.6125 9.26894L10.1562 5.73145"/></svg>