<svg xmlns="http://www.w3.org/2000/svg" width="20" height="20" fill="none" viewBox="0 0 20 20"><path stroke="#17191C" stroke-linecap="round" stroke-linejoin="round" stroke-width="1.5" d="M17.8333 10.7502L14.0833 12.6668L11.4166 10.0002L14.0833 7.3335L17.8333 9.16683C17.983 9.23802 18.1094 9.35018 18.1979 9.4903C18.2864 9.63042 18.3334 9.79276 18.3334 9.9585C18.3334 10.1242 18.2864 10.2866 18.1979 10.4267C18.1094 10.5668 17.983 10.679 17.8333 10.7502V10.7502Z"/><path stroke="#17191C" stroke-linecap="round" stroke-linejoin="round" stroke-width="1.5" d="M14.0834 7.3331L11.4167 9.99977L3.4167 17.9998L2.9167 18.2498C2.78021 18.3172 2.62839 18.3475 2.47647 18.3377C2.32455 18.3279 2.17788 18.2783 2.05121 18.1938C1.92455 18.1094 1.82233 17.9931 1.75484 17.8566C1.68734 17.7202 1.65694 17.5684 1.6667 17.4164V2.5831C1.66495 2.43385 1.70052 2.28653 1.77017 2.15453C1.83983 2.02252 1.94136 1.91001 2.06555 1.82721C2.18974 1.74442 2.33265 1.69397 2.4813 1.68044C2.62994 1.66692 2.77961 1.69075 2.9167 1.74977L14.0834 7.3331Z"/><path stroke="#17191C" stroke-linecap="round" stroke-linejoin="round" stroke-width="1.5" d="M14.0833 12.6667L3.41663 18L11.4166 10L14.0833 12.6667Z"/><path stroke="#17191C" stroke-linecap="round" stroke-linejoin="round" stroke-width="1.5" d="M11.4166 10L3.41663 2"/></svg>